HIERARCHY
ROOT ui
{
	 OFFSET 0 0 0
	 CHANNELS 3 XPosition YPosition Z Position
	 EndSite
	 {
	 OFFSET 0 -1 0
	 }
}
ROOT li
{
	 OFFSET 0 0 0
	 CHANNELS 3 XPosition YPosition Z Position
	 EndSite
	 {
	 OFFSET 0 -1 0
	 }
}
ROOT ul
{
	 OFFSET 0 0 0
	 CHANNELS 3 XPosition YPosition Z Position
	 EndSite
	 {
	 OFFSET 0 -1 0
	 }
}
ROOT ll
{
	 OFFSET 0 0 0
	 CHANNELS 3 XPosition YPosition Z Position
	 EndSite
	 {
	 OFFSET 0 -1 0
	 }
}
ROOT tt
{
	 OFFSET 0 0 0
	 CHANNELS 3 XPosition YPosition Z Position
	 EndSite
	 {
	 OFFSET 0 -1 0
	 }
}
ROOT tb
{
	 OFFSET 0 0 0
	 CHANNELS 3 XPosition YPosition Z Position
	 EndSite
	 {
	 OFFSET 0 -1 0
	 }
}
ROOT td
{
	 OFFSET 0 0 0
	 CHANNELS 3 XPosition YPosition Z Position
	 EndSite
	 {
	 OFFSET 0 -1 0
	 }
}
ROOT v
{
	 OFFSET 0 0 0
	 CHANNELS 3 XPosition YPosition Z Position
	 EndSite
	 {
	 OFFSET 0 -1 0
	 }
}
ROOT bn
{
	 OFFSET 0 0 0
	 CHANNELS 3 XPosition YPosition Z Position
	 EndSite
	 {
	 OFFSET 0 -1 0
	 }
}
MOTION
Frames: 30
Frame Time: 0.002
-0.006429633140563965	0.001391294002532959	0		0.5412503662109375	-2.356341552734375	0		-1.3113294677734375	0.14754631042480468	0		-0.6782127685546875	-2.506540283203125	0		1.789515869140625	-0.5343880615234375	0		3.257243408203125	-0.044980209350585935	0		4.47886376953125	0.18019419860839844	0		6.0534208984375	0.62265234375	0		-0.27104345703125	5.92518017578125	0		
0.00203173303604126	-1.8519300222396851E-4	0		0.544404541015625	-2.379830810546875	0		-1.354894775390625	0.1447544403076172	0		-0.640721435546875	-2.50857275390625	0		1.78081689453125	-0.5466771850585938	0		3.2577216796875	-0.045389957427978515	0		4.48466259765625	0.2007211456298828	0		6.04593798828125	0.625762451171875	0		-0.3047023315429688	5.921248046875	0		
-5.389699935913085E-4	-0.003606468915939331	0		0.5152817993164063	-2.355832763671875	0		-1.346637939453125	0.13014859008789062	0		-0.70908447265625	-2.499986328125	0		1.780067626953125	-0.5621063232421875	0		3.249552978515625	-0.0226825008392334	0		4.49331884765625	0.21218283081054687	0		6.04261083984375	0.6096458740234375	0		-0.2891618957519531	5.92954443359375	0		
-0.0019428720474243164	0.00394160008430481	0		0.49453765869140626	-2.3719833984375	0		-1.3761787109375	0.12911334228515625	0		-0.7045220336914062	-2.496538330078125	0		1.79234521484375	-0.5757508544921875	0		3.294005126953125	-0.024804244995117186	0		4.50018896484375	0.23765718078613282	0		6.05302978515625	0.62412890625	0		-0.23854769897460937	5.9422880859375	0		
0.008372319221496583	-0.006705728054046631	0		0.5510131225585938	-2.374333740234375	0		-1.3757098388671876	0.12860289001464845	0		-0.7318505859375	-2.485611572265625	0		1.7836385498046874	-0.5880850830078125	0		3.283892333984375	0.001904966950416565	0		4.52085400390625	0.24990499877929687	0		6.05683203125	0.6076934204101563	0		-0.27318768310546876	5.93932958984375	0		
0.003917416095733642	-0.002135571002960205	0		0.5198357543945312	-2.353343994140625	0		-1.35435400390625	0.12075820922851563	0		-0.69743408203125	-2.491648681640625	0		1.8077720947265625	-0.6109362182617187	0		3.280145263671875	-0.012498761177062988	0		4.52462548828125	0.26940447998046874	0		6.0422099609375	0.6109625854492188	0		-0.25387039184570315	5.9335283203125	0		
-5.41483998298645E-4	0.0024247660636901856	0		0.5203295288085937	-2.353853271484375	0		-1.3930101318359376	0.11282491302490234	0		-0.734918701171875	-2.49058984375	0		1.80189111328125	-0.6343341674804688	0		3.305851806640625	0.002641433000564575	0		4.54529833984375	0.28263763427734373	0		6.04531494140625	0.5979902954101562	0		-0.2885552978515625	5.92854736328125	0		
0.0017932449579238891	-0.0061282567977905275	0		0.5562632446289062	-2.39091748046875	0		-1.360680419921875	0.10379225158691406	0		-0.6876007690429687	-2.50284326171875	0		1.826032470703125	-0.6561983032226563	0		3.318354248046875	0.004979437828063965	0		4.5470283203125	0.30015982055664064	0		6.038716796875	0.6303628540039062	0		-0.28817962646484374	5.92802001953125	0		
-0.002695358991622925	-0.002579870939254761	0		0.5229520874023438	-2.377917236328125	0		-1.40121240234375	0.10487226104736327	0		-0.7549522094726563	-2.49234033203125	0		1.8570435791015625	-0.6861702880859375	0		3.33915380859375	0.027192516326904295	0		4.58177587890625	0.3191772155761719	0		6.0489111328125	0.6119400024414062	0		-0.2726530456542969	5.9382568359375	0		
8.041329979896545E-4	8.446980118751526E-4	0		0.52178271484375	-2.35540966796875	0		-1.3707637939453126	0.10486038970947266	0		-0.6785115966796875	-2.49604541015625	0		1.864247802734375	-0.7027736206054688	0		3.34240771484375	0.01467470359802246	0		4.5904072265625	0.33160064697265623	0		6.04141064453125	0.6166820068359375	0		-0.23922554016113282	5.94321728515625	0		
0.0012294169664382934	3.185139894485474E-4	0		0.5488200073242188	-2.3843359375	0		-1.386246826171875	0.11055296325683593	0		-0.713990234375	-2.49303369140625	0		1.90428369140625	-0.729874267578125	0		3.383873779296875	0.01658261680603027	0		4.61182421875	0.3308377990722656	0		6.04884375	0.615701416015625	0		-0.27199761962890623	5.93719189453125	0		
0.001639022946357727	-2.0079100131988525E-4	0		0.5196478881835938	-2.360388671875	0		-1.3630712890625	0.09465606689453125	0		-0.6796106567382812	-2.49908642578125	0		1.922262939453125	-0.759626708984375	0		3.374238525390625	0.013284714698791503	0		4.61940966796875	0.34230325317382815	0		6.042001953125	0.6152806396484375	0		-0.287843505859375	5.92791259765625	0		
-0.0010303590297698975	-0.004662858009338379	0		0.5456607666015625	-2.389279052734375	0		-1.40773779296875	0.09080471801757813	0		-0.7130843505859376	-2.494091552734375	0		1.9630255126953124	-0.80271337890625	0		3.383597900390625	0.010713289260864258	0		4.64489697265625	0.3485140380859375	0		6.03445654296875	0.6183823852539062	0		-0.27243133544921877	5.93716796875	0		
0.002400394916534424	-0.0012019259929656983	0		0.556979248046875	-2.39692578125	0		-1.4114151611328125	0.08733991241455077	0		-0.6997484130859375	-2.500798583984375	0		1.9580799560546875	-0.825081298828125	0		3.395753173828125	-0.0038809781074523927	0		4.66221142578125	0.3448720703125	0		6.053822265625	0.5928494262695313	0		-0.2560660095214844	5.945423828125	0		
0.009851719856262207	0.005218308925628662	0		0.53550927734375	-2.38905078125	0		-1.4070264892578126	0.08977074432373047	0		-0.69121923828125	-2.4934111328125	0		2.0428740234375	-0.8637928466796875	0		3.432261962890625	0.006183023929595947	0		4.68665185546875	0.3511507568359375	0		6.04504443359375	0.6324247436523438	0		-0.23793243408203124	5.940671875	0		
-0.006798723220825195	0.007028924942016602	0		0.546873046875	-2.39065087890625	0		-1.379881591796875	0.07787774658203125	0		-0.6969266357421875	-2.49978515625	0		2.0256544189453125	-0.9009242553710938	0		3.409202392578125	-0.0188221492767334	0		4.696958984375	0.35067483520507814	0		6.04506298828125	0.5990623168945313	0		-0.28699334716796876	5.92596337890625	0		
0.003348083972930908	-0.002539928913116455	0		0.5260579223632813	-2.40173486328125	0		-1.4386680908203124	0.0733167495727539	0		-0.6877271728515625	-2.510357421875	0		2.061428955078125	-0.9368291015625	0		3.440347412109375	-0.02861686325073242	0		4.7080205078125	0.336218505859375	0		6.04231396484375	0.5831608276367187	0		-0.28785372924804686	5.926552734375	0		
-0.009312653541564941	0.0032703709602355958	0		0.5523218383789062	-2.405499267578125	0		-1.3925191650390625	0.0661968994140625	0		-0.7274375610351562	-2.512156494140625	0		2.057157470703125	-0.9730941772460937	0		3.448352294921875	-0.04502816772460937	0		4.7262412109375	0.334688720703125	0		6.03882470703125	0.5673432006835938	0		-0.30094793701171874	5.91435693359375	0		
-0.009107298851013183	0.0029195899963378904	0		0.5085215454101563	-2.410169921875	0		-1.4363558349609375	0.0634735107421875	0		-0.7142566528320312	-2.51872216796875	0		2.091856689453125	-1.0089137573242188	0		3.448619384765625	-0.041286388397216794	0		4.745208984375	0.31918020629882815	0		6.033609375	0.6225831298828125	0		-0.25266552734375	5.92927197265625	0		
0.007006772041320801	-6.34518027305603E-4	0		0.5626944580078125	-2.414283203125	0		-1.3962008056640625	0.06251999282836915	0		-0.7031663818359375	-2.52821875	0		2.093591796875	-1.0391988525390625	0		3.45544921875	-0.06361216354370117	0		4.76023974609375	0.3107662353515625	0		6.04360986328125	0.606384033203125	0		-0.30188009643554686	5.9146923828125	0		
-0.005786266803741455	0.005286732196807861	0		0.5478869018554687	-2.4133173828125	0		-1.4042066650390626	0.05433244705200195	0		-0.6731266479492187	-2.53796044921875	0		2.1621083984375	-1.0814537353515625	0		3.475563720703125	-0.06410034942626953	0		4.76034716796875	0.31061163330078123	0		6.043689453125	0.6061747436523437	0		-0.2867643127441406	5.92418408203125	0		
-0.0057183651924133305	0.0050531959533691405	0		0.580812744140625	-2.4270322265625	0		-1.409184326171875	0.05114142608642578	0		-0.668209716796875	-2.552283447265625	0		2.152767333984375	-1.1104976806640625	0		3.463198974609375	-0.093068359375	0		4.7742861328125	0.30228094482421874	0		6.04007373046875	0.590581298828125	0		-0.30296920776367187	5.915185546875	0		
0.0011059759855270386	-0.008242914199829102	0		0.56072314453125	-2.43791064453125	0		-1.333248779296875	0.044778797149658205	0		-0.6403170166015625	-2.564908935546875	0		2.185238037109375	-1.1491339111328125	0		3.444893310546875	-0.1149128189086914	0		4.78407373046875	0.2870442810058594	0		6.037330078125	0.6061504516601562	0		-0.2869447326660156	5.9237451171875	0		
-0.005725667953491211	0.004709176063537598	0		0.560744384765625	-2.43805078125	0		-1.4413997802734375	0.037219802856445314	0		-0.6904524536132812	-2.57532275390625	0		2.1787548828125	-1.1811483154296876	0		3.48647412109375	-0.14162181091308593	0		4.79281494140625	0.2718550720214844	0		6.04372802734375	0.6058652954101562	0		-0.26997210693359375	5.93133251953125	0		
0.014212732315063476	0.005299642086029053	0		0.5736525268554687	-2.442344970703125	0		-1.3164437255859376	0.038213241577148435	0		-0.6206080322265625	-2.58449169921875	0		2.243140869140625	-1.219187744140625	0		3.470359375	-0.14442962646484375	0		4.802734375	0.2716813049316406	0		6.03169873046875	0.6305215454101563	0		-0.2721225280761719	5.93324755859375	0		
-0.005920759201049805	0.004529857158660889	0		0.5565723266601562	-2.44215087890625	0		-1.3334735107421876	0.04437680435180664	0		-0.656952880859375	-2.602030517578125	0		2.236651611328125	-1.2451287841796874	0		3.461688720703125	-0.18132012939453124	0		4.80031103515625	0.25172029113769534	0		6.03506982421875	0.61314111328125	0		-0.30164764404296873	5.91260986328125	0		
-0.006088056087493896	0.004500464916229248	0		0.5513341674804687	-2.44909716796875	0		-1.3339549560546875	0.02333180046081543	0		-0.594301025390625	-2.617008056640625	0		2.245947509765625	-1.28227294921875	0		3.47225390625	-0.19946488952636718	0		4.79581201171875	0.22981808471679688	0		6.02781787109375	0.6134912109375	0		-0.3028797912597656	5.91359130859375	0		
5.033980011940003E-4	-0.008594427108764648	0		0.5658178100585938	-2.47130419921875	0		-1.4082203369140625	0.020429763793945312	0		-0.6616422119140625	-2.62700537109375	0		2.2222880859375	-1.31289306640625	0		3.480608642578125	-0.22854901123046875	0		4.80229638671875	0.209777587890625	0		6.031134765625	0.5979254760742188	0		-0.2889969787597656	5.92438623046875	0		
-0.006561264991760254	0.004551629066467285	0		0.5754448852539062	-2.480404296875	0		-1.3225789794921874	0.013178584098815917	0		-0.6082423706054687	-2.651770751953125	0		2.225607421875	-1.3418868408203124	0		3.45033984375	-0.22902769470214843	0		4.79203662109375	0.21001217651367188	0		6.041029296875	0.6132999877929688	0		-0.2552378234863281	5.9289189453125	0		
-0.0068645567893981935	0.004627140045166016	0		0.57515771484375	-2.480324951171875	0		-1.4296915283203124	0.026839244842529298	0		-0.649568603515625	-2.654087646484375	0		2.242908203125	-1.3690621337890625	0		3.481244384765625	-0.2824009094238281	0		4.79841796875	0.18901678466796876	0		6.03715087890625	0.5980597534179688	0		-0.2896502685546875	5.92450048828125	0		
